<svg width="88" height="100" viewBox="0 0 88 100" fill="none" xmlns="http://www.w3.org/2000/svg">
<path d="M72.8676 22.0003V19.886C72.8676 11.368 64.9535 4.9073 56.649 7.08406C51.6434 -2.58391 38.2721 -2.18352 33.6057 7.22996C25.5432 5.16726 17.511 11.3175 17.511 19.9219V44.5567C13.6139 43.1061 9.05237 43.5669 5.38537 46.2893C-0.348024 50.5464 -1.60564 58.6591 2.54358 64.4833L25.975 97.3768C26.553 98.1881 27.3166 98.8495 28.202 99.3058C29.0874 99.7622 30.0691 100 31.0653 100H74.5998C77.5108 100 80.0363 97.9907 80.6901 95.154L86.5854 69.5762C87.2591 66.651 87.5995 63.6589 87.6 60.6571V34.961C87.6 27.0274 80.6619 20.9001 72.8676 22.0003ZM78.2244 60.6569C78.2244 62.9481 77.9639 65.2407 77.45 67.4706L72.1131 90.6251H32.6756L10.1764 59.0436C7.35627 55.0846 13.1106 50.6889 15.9174 54.6286L21.2158 62.0659C22.9727 64.5319 26.886 63.2938 26.886 60.2528V19.9219C26.886 14.9132 34.0287 15.0762 34.0287 20.0569V50.0001C34.0287 51.726 35.4278 53.1251 37.1537 53.1251H38.4928C40.2188 53.1251 41.6178 51.726 41.6178 50.0001V13.086C41.6178 8.07371 48.7606 8.24031 48.7606 13.221V50.0001C48.7606 51.726 50.1596 53.1251 51.8856 53.1251H53.2246C54.9506 53.1251 56.3496 51.726 56.3496 50.0001V19.7511C56.3496 14.737 63.4922 14.9053 63.4922 19.886V50.0001C63.4922 51.726 64.8912 53.1251 66.6172 53.1251H67.9565C69.6824 53.1251 71.0815 51.726 71.0815 50.0001V35.096C71.0815 29.9706 78.224 30.0882 78.224 34.961V60.6569H78.2244Z" fill="black"/>
</svg>
