<svg width="110" height="100" viewBox="0 0 110 100" fill="none" xmlns="http://www.w3.org/2000/svg">
<path d="M54.5501 9.09091C52.0406 9.09091 49.8981 9.97869 48.1225 11.7543C46.347 13.5298 45.4592 15.6723 45.4592 18.1818V27.2727H43.1865V20.6676C43.1865 18.3949 42.4289 16.4654 40.9137 14.8793C39.3986 13.2931 37.5046 12.5 35.2319 12.5C33.0539 12.5 31.1836 13.2812 29.6211 14.8438C28.0586 16.4062 27.2774 18.2765 27.2774 20.4545V50.9233L25.0046 48.7926V36.5767C25.0046 34.304 24.2471 32.3745 22.7319 30.7884C21.2168 29.2022 19.3228 28.4091 17.0501 28.4091C14.8721 28.4091 13.0018 29.1903 11.4393 30.7528C9.8768 32.3153 9.09555 34.1856 9.09555 36.3636V52.2727C9.09555 54.4981 9.92415 56.4394 11.5813 58.0966L33.5984 79.1193C35.445 80.9659 36.3683 83.3807 36.3683 86.3636C36.3683 87.5947 36.8181 88.66 37.7177 89.5597C38.6173 90.4593 39.6827 90.9091 40.9137 90.9091H86.3683C87.5993 90.9091 88.6647 90.4593 89.5643 89.5597C90.4639 88.66 90.9137 87.5947 90.9137 86.3636V84.5881C90.9137 82.6468 91.1505 80.8239 91.624 79.1193L99.2944 48.1534C99.7679 46.4489 100.005 44.6259 100.005 42.6847V25.2131C100.005 22.9403 99.2471 21.0109 97.7319 19.4247C96.2168 17.8385 94.3228 17.0455 92.0501 17.0455C89.8721 17.0455 88.0018 17.8267 86.4393 19.3892C84.8768 20.9517 84.0956 22.822 84.0956 25V27.2727H81.8228V18.3949C81.8228 16.5009 81.231 14.7846 80.0472 13.2457C78.8635 11.7069 77.3484 10.7481 75.5018 10.3693C74.8389 10.2746 74.2944 10.2273 73.8683 10.2273C71.6902 10.2273 69.82 11.0085 68.2575 12.571C66.695 14.1335 65.9137 16.0038 65.9137 18.1818V27.2727H63.641V18.608C63.641 16.1932 62.8716 14.0743 61.3328 12.2514C59.7939 10.4285 57.8408 9.39867 55.4734 9.16193C55.2366 9.11458 54.9289 9.09091 54.5501 9.09091ZM54.5501 0C58.5274 0 62.0548 1.18371 65.1325 3.55114C67.8313 1.94129 70.7433 1.13636 73.8683 1.13636C76.6618 1.13636 79.2897 1.77557 81.7518 3.05398C84.2139 4.33239 86.2499 6.13163 87.8597 8.4517C89.1382 8.12027 90.5349 7.95455 92.0501 7.95455C96.7849 7.95455 100.81 9.64725 104.124 13.0327C107.438 16.4181 109.096 20.4782 109.096 25.2131V42.6847C109.096 45.0994 108.788 47.6562 108.172 50.3551L100.431 81.321C100.147 82.4574 100.005 84.1383 100.005 86.3636C100.005 90.1515 98.6789 93.3712 96.0274 96.0227C93.3758 98.6742 90.1562 100 86.3683 100H40.9137C36.9365 100 33.6694 98.6151 31.1126 95.8452C28.5558 93.0753 27.2774 89.7017 27.2774 85.7244L5.40237 64.7017C1.80388 61.2453 0.00463867 57.1023 0.00463867 52.2727V36.3636C0.00463867 31.6761 1.67367 27.6634 5.01174 24.3253C8.34981 20.9872 12.3626 19.3182 17.0501 19.3182C17.5709 19.3182 17.9497 19.3419 18.1865 19.3892C18.4705 14.8911 20.258 11.1032 23.5487 8.02557C26.8394 4.94792 30.7338 3.40909 35.2319 3.40909C37.694 3.40909 40.0141 3.90625 42.1921 4.90057C45.6012 1.63352 49.7205 0 54.5501 0Z" fill="black"/>
</svg>
