<svg width="101" height="88" viewBox="0 0 101 88" fill="none" xmlns="http://www.w3.org/2000/svg">
<path d="M50.1001 87.7501L63.772 87.7475C64.7708 87.7475 65.7702 87.6337 66.7413 87.4098L89.9833 82.053C95.9126 80.6866 100.1 75.4493 100.1 69.4448V29.2686C100.1 24.6114 97.5552 20.2938 93.4585 18.001L74.3181 7.28757C67.5976 3.52565 61.1808 6.15007 56.3067 12.1182L28.0005 1.22819C20.6007 -1.61927 12.256 1.95612 9.32041 9.27526C6.37158 16.6272 10.0304 24.9725 17.5122 27.8518L32.9126 31.5001L14.5532 29.7147C6.58369 29.7147 0.100098 36.1231 0.100098 43.9999C0.100098 51.8768 6.58369 58.2852 14.5532 58.2852H31.6694C30.9517 63.4112 33.3671 68.3042 37.5954 70.9817C34.994 79.3003 41.3196 87.7501 50.1001 87.7501ZM50.1001 78.3725C45.186 78.3725 45.1938 71.2305 50.1001 71.2305C51.8261 71.2305 53.2251 69.8315 53.2251 68.1055V66.7665C53.2251 65.0405 51.8261 63.6415 50.1001 63.6415H44.6313C39.7175 63.6415 39.7247 56.4995 44.6313 56.4995H50.1001C51.8261 56.4995 53.2251 55.1005 53.2251 53.3745V52.0354C53.2251 50.3094 51.8261 48.9104 50.1001 48.9104H14.5532C7.82861 48.9104 7.83936 39.0899 14.5532 39.0899H50.1001C51.8261 39.0899 53.2251 37.6909 53.2251 35.9649V33.693C53.2251 33.0614 53.0337 32.4447 52.6762 31.924C52.3187 31.4034 51.8118 31.0033 51.2224 30.7764L20.8792 19.0997C14.7167 16.7286 18.2558 7.52097 24.6335 9.97526L57.1626 22.493C57.7769 22.7294 58.4501 22.7658 59.0862 22.597C59.7224 22.4283 60.289 22.063 60.7054 21.5532L64.9561 16.3487C66.0929 14.9567 68.1491 14.5784 69.739 15.4682L88.8796 26.1819C90.0179 26.8192 90.7251 28.0018 90.7251 29.2688V69.4448C90.7251 71.1032 89.5544 72.5315 87.8782 72.9178L64.6358 78.2747C64.3525 78.3398 64.0627 78.3727 63.772 78.3727H50.1001V78.3725Z" fill="black"/>
</svg>
